<mxfile host="Electron" agent="Mozilla/5.0 (Windows NT 10.0; Win64; x64) AppleWebKit/537.36 (KHTML, like Gecko) draw.io/25.0.2 Chrome/128.0.6613.186 Electron/32.2.5 Safari/537.36" version="25.0.2">
  <diagram id="C5RBs43oDa-KdzZeNtuy" name="Page-1">
    <mxGraphModel dx="1484" dy="2040" grid="1" gridSize="10" guides="1" tooltips="1" connect="1" arrows="1" fold="1" page="1" pageScale="1" pageWidth="827" pageHeight="1169" math="0" shadow="0">
      <root>
        <mxCell id="WIyWlLk6GJQsqaUBKTNV-0" />
        <mxCell id="WIyWlLk6GJQsqaUBKTNV-1" parent="WIyWlLk6GJQsqaUBKTNV-0" />
        <mxCell id="YZaQ3h0gJ-rlXRXciao8-0" value="Doctor" style="swimlane;fontStyle=1;align=center;verticalAlign=top;childLayout=stackLayout;horizontal=1;startSize=26;horizontalStack=0;resizeParent=1;resizeParentMax=0;resizeLast=0;collapsible=1;marginBottom=0;whiteSpace=wrap;html=1;" parent="WIyWlLk6GJQsqaUBKTNV-1" vertex="1">
          <mxGeometry x="640" y="-250" width="390" height="220" as="geometry" />
        </mxCell>
        <mxCell id="YZaQ3h0gJ-rlXRXciao8-1" value="-Experience: int&lt;div&gt;-WorkingHours: String&lt;/div&gt;&lt;div&gt;-Specialization: String&lt;/div&gt;" style="text;strokeColor=none;fillColor=none;align=left;verticalAlign=top;spacingLeft=4;spacingRight=4;overflow=hidden;rotatable=0;points=[[0,0.5],[1,0.5]];portConstraint=eastwest;whiteSpace=wrap;html=1;" parent="YZaQ3h0gJ-rlXRXciao8-0" vertex="1">
          <mxGeometry y="26" width="390" height="54" as="geometry" />
        </mxCell>
        <mxCell id="YZaQ3h0gJ-rlXRXciao8-2" value="" style="line;strokeWidth=1;fillColor=none;align=left;verticalAlign=middle;spacingTop=-1;spacingLeft=3;spacingRight=3;rotatable=0;labelPosition=right;points=[];portConstraint=eastwest;strokeColor=inherit;" parent="YZaQ3h0gJ-rlXRXciao8-0" vertex="1">
          <mxGeometry y="80" width="390" height="8" as="geometry" />
        </mxCell>
        <mxCell id="YZaQ3h0gJ-rlXRXciao8-3" value="+getExperience(): int&lt;div&gt;+setExperience(int newValue): void&lt;br&gt;&lt;div&gt;+getWorkingHours(): String&lt;div&gt;+setWorkingHours(String newValue): void&lt;/div&gt;&lt;/div&gt;&lt;/div&gt;&lt;div&gt;+getSpecialization(): String&lt;div&gt;+setSpecialization(String newValue): void&lt;/div&gt;&lt;/div&gt;&lt;div&gt;+writeMedicalCard(MedCard medcard): void&lt;/div&gt;&lt;div&gt;+Doctor(int: Experience, String: WorkingHours, String: Specialization)&lt;/div&gt;" style="text;strokeColor=none;fillColor=none;align=left;verticalAlign=top;spacingLeft=4;spacingRight=4;overflow=hidden;rotatable=0;points=[[0,0.5],[1,0.5]];portConstraint=eastwest;whiteSpace=wrap;html=1;" parent="YZaQ3h0gJ-rlXRXciao8-0" vertex="1">
          <mxGeometry y="88" width="390" height="132" as="geometry" />
        </mxCell>
        <mxCell id="YZaQ3h0gJ-rlXRXciao8-4" value="&lt;div&gt;Human&lt;/div&gt;" style="swimlane;fontStyle=1;align=center;verticalAlign=top;childLayout=stackLayout;horizontal=1;startSize=26;horizontalStack=0;resizeParent=1;resizeParentMax=0;resizeLast=0;collapsible=1;marginBottom=0;whiteSpace=wrap;html=1;" parent="WIyWlLk6GJQsqaUBKTNV-1" vertex="1">
          <mxGeometry x="380" y="-584" width="180" height="150" as="geometry" />
        </mxCell>
        <mxCell id="YZaQ3h0gJ-rlXRXciao8-5" value="# FIO: String&lt;div&gt;# Age: int&lt;/div&gt;&lt;div&gt;&lt;div&gt;&lt;br&gt;&lt;/div&gt;&lt;/div&gt;" style="text;strokeColor=none;fillColor=none;align=left;verticalAlign=top;spacingLeft=4;spacingRight=4;overflow=hidden;rotatable=0;points=[[0,0.5],[1,0.5]];portConstraint=eastwest;whiteSpace=wrap;html=1;" parent="YZaQ3h0gJ-rlXRXciao8-4" vertex="1">
          <mxGeometry y="26" width="180" height="44" as="geometry" />
        </mxCell>
        <mxCell id="YZaQ3h0gJ-rlXRXciao8-6" value="" style="line;strokeWidth=1;fillColor=none;align=left;verticalAlign=middle;spacingTop=-1;spacingLeft=3;spacingRight=3;rotatable=0;labelPosition=right;points=[];portConstraint=eastwest;strokeColor=inherit;" parent="YZaQ3h0gJ-rlXRXciao8-4" vertex="1">
          <mxGeometry y="70" width="180" height="8" as="geometry" />
        </mxCell>
        <mxCell id="YZaQ3h0gJ-rlXRXciao8-7" value="+ getFIO(): String&lt;div&gt;+ getAge(): int&lt;/div&gt;&lt;div&gt;+ setAge(int newValue): void&lt;br&gt;&lt;/div&gt;&lt;div&gt;+Human(FIO: String,Age: int)&lt;/div&gt;" style="text;strokeColor=none;fillColor=none;align=left;verticalAlign=top;spacingLeft=4;spacingRight=4;overflow=hidden;rotatable=0;points=[[0,0.5],[1,0.5]];portConstraint=eastwest;whiteSpace=wrap;html=1;" parent="YZaQ3h0gJ-rlXRXciao8-4" vertex="1">
          <mxGeometry y="78" width="180" height="72" as="geometry" />
        </mxCell>
        <mxCell id="YZaQ3h0gJ-rlXRXciao8-8" value="Patient" style="swimlane;fontStyle=1;align=center;verticalAlign=top;childLayout=stackLayout;horizontal=1;startSize=26;horizontalStack=0;resizeParent=1;resizeParentMax=0;resizeLast=0;collapsible=1;marginBottom=0;whiteSpace=wrap;html=1;" parent="WIyWlLk6GJQsqaUBKTNV-1" vertex="1">
          <mxGeometry x="-30" y="-290" width="360" height="240" as="geometry" />
        </mxCell>
        <mxCell id="YZaQ3h0gJ-rlXRXciao8-9" value="- Weight: int&lt;div&gt;- Height: int&lt;/div&gt;&lt;div&gt;- BloodType: int&lt;/div&gt;&lt;div&gt;- Condition: boolean&lt;br&gt;&lt;div&gt;&lt;br&gt;&lt;/div&gt;&lt;/div&gt;" style="text;strokeColor=none;fillColor=none;align=left;verticalAlign=top;spacingLeft=4;spacingRight=4;overflow=hidden;rotatable=0;points=[[0,0.5],[1,0.5]];portConstraint=eastwest;whiteSpace=wrap;html=1;" parent="YZaQ3h0gJ-rlXRXciao8-8" vertex="1">
          <mxGeometry y="26" width="360" height="64" as="geometry" />
        </mxCell>
        <mxCell id="YZaQ3h0gJ-rlXRXciao8-10" value="" style="line;strokeWidth=1;fillColor=none;align=left;verticalAlign=middle;spacingTop=-1;spacingLeft=3;spacingRight=3;rotatable=0;labelPosition=right;points=[];portConstraint=eastwest;strokeColor=inherit;" parent="YZaQ3h0gJ-rlXRXciao8-8" vertex="1">
          <mxGeometry y="90" width="360" height="8" as="geometry" />
        </mxCell>
        <mxCell id="YZaQ3h0gJ-rlXRXciao8-11" value="+ getWeight(): int&lt;div&gt;+&amp;nbsp;&lt;span style=&quot;background-color: initial;&quot;&gt;getWeight(int newValue): void&lt;/span&gt;&lt;/div&gt;&lt;div&gt;+ getHeight(): int&lt;div&gt;+&amp;nbsp;&lt;span style=&quot;background-color: initial;&quot;&gt;get&lt;/span&gt;Height&lt;span style=&quot;background-color: initial;&quot;&gt;(int newValue): void&lt;/span&gt;&lt;/div&gt;&lt;/div&gt;&lt;div&gt;&lt;span style=&quot;background-color: initial;&quot;&gt;+ getBloodType(): int&lt;/span&gt;&lt;/div&gt;&lt;div&gt;+ getCondition(): boolean&lt;div&gt;+&amp;nbsp;&lt;span style=&quot;background-color: initial;&quot;&gt;get&lt;/span&gt;Condition&lt;span style=&quot;background-color: initial;&quot;&gt;(boolean newValue): void&lt;/span&gt;&lt;/div&gt;&lt;/div&gt;&lt;div&gt;&lt;span style=&quot;background-color: initial;&quot;&gt;+ makeAppointment(): void&lt;/span&gt;&lt;/div&gt;&lt;div&gt;&lt;span style=&quot;background-color: initial;&quot;&gt;+ Patient(int: Weight,int: Height,int BloodType:,boolean Condition)&lt;/span&gt;&lt;/div&gt;" style="text;strokeColor=none;fillColor=none;align=left;verticalAlign=top;spacingLeft=4;spacingRight=4;overflow=hidden;rotatable=0;points=[[0,0.5],[1,0.5]];portConstraint=eastwest;whiteSpace=wrap;html=1;" parent="YZaQ3h0gJ-rlXRXciao8-8" vertex="1">
          <mxGeometry y="98" width="360" height="142" as="geometry" />
        </mxCell>
        <mxCell id="YZaQ3h0gJ-rlXRXciao8-12" value="Hospital" style="swimlane;fontStyle=1;align=center;verticalAlign=top;childLayout=stackLayout;horizontal=1;startSize=26;horizontalStack=0;resizeParent=1;resizeParentMax=0;resizeLast=0;collapsible=1;marginBottom=0;whiteSpace=wrap;html=1;" parent="WIyWlLk6GJQsqaUBKTNV-1" vertex="1">
          <mxGeometry x="310" y="110" width="390" height="230" as="geometry" />
        </mxCell>
        <mxCell id="YZaQ3h0gJ-rlXRXciao8-13" value="&lt;div&gt;- Name: String&lt;br&gt;&lt;/div&gt;- Address: String&lt;div&gt;- Phone: String&lt;/div&gt;&lt;div&gt;- CntPatient: int&lt;/div&gt;&lt;div&gt;&lt;br&gt;&lt;/div&gt;" style="text;strokeColor=none;fillColor=none;align=left;verticalAlign=top;spacingLeft=4;spacingRight=4;overflow=hidden;rotatable=0;points=[[0,0.5],[1,0.5]];portConstraint=eastwest;whiteSpace=wrap;html=1;" parent="YZaQ3h0gJ-rlXRXciao8-12" vertex="1">
          <mxGeometry y="26" width="390" height="64" as="geometry" />
        </mxCell>
        <mxCell id="YZaQ3h0gJ-rlXRXciao8-14" value="" style="line;strokeWidth=1;fillColor=none;align=left;verticalAlign=middle;spacingTop=-1;spacingLeft=3;spacingRight=3;rotatable=0;labelPosition=right;points=[];portConstraint=eastwest;strokeColor=inherit;" parent="YZaQ3h0gJ-rlXRXciao8-12" vertex="1">
          <mxGeometry y="90" width="390" height="8" as="geometry" />
        </mxCell>
        <mxCell id="YZaQ3h0gJ-rlXRXciao8-15" value="+getName(): String&lt;div&gt;+getAddress(): String&lt;/div&gt;&lt;div&gt;+getPhone(): String&lt;/div&gt;&lt;div&gt;+setPhone(String newValue): void&lt;/div&gt;&lt;div&gt;+getCntPatient(): int&lt;/div&gt;&lt;div&gt;+setCntPatient(int newValue): void&lt;/div&gt;&lt;div&gt;+acceptPatient(int: cntPatient)&lt;/div&gt;&lt;div&gt;+Hospital(String: Name, String: Address, String: Phone, int: CntPatient)&lt;/div&gt;" style="text;strokeColor=none;fillColor=none;align=left;verticalAlign=top;spacingLeft=4;spacingRight=4;overflow=hidden;rotatable=0;points=[[0,0.5],[1,0.5]];portConstraint=eastwest;whiteSpace=wrap;html=1;" parent="YZaQ3h0gJ-rlXRXciao8-12" vertex="1">
          <mxGeometry y="98" width="390" height="132" as="geometry" />
        </mxCell>
        <mxCell id="YZaQ3h0gJ-rlXRXciao8-17" value="" style="html=1;verticalAlign=bottom;startArrow=none;startFill=0;endArrow=block;startSize=8;curved=0;rounded=0;endFill=0;entryX=0.228;entryY=1.024;entryDx=0;entryDy=0;exitX=0.889;exitY=0;exitDx=0;exitDy=0;entryPerimeter=0;exitPerimeter=0;" parent="WIyWlLk6GJQsqaUBKTNV-1" source="YZaQ3h0gJ-rlXRXciao8-8" target="YZaQ3h0gJ-rlXRXciao8-7" edge="1">
          <mxGeometry x="0.6808" y="94" width="60" relative="1" as="geometry">
            <mxPoint x="330" y="180" as="sourcePoint" />
            <mxPoint x="250" y="130" as="targetPoint" />
            <mxPoint y="-1" as="offset" />
          </mxGeometry>
        </mxCell>
        <mxCell id="YZaQ3h0gJ-rlXRXciao8-18" value="" style="html=1;verticalAlign=bottom;startArrow=none;startFill=0;endArrow=block;startSize=8;curved=0;rounded=0;endFill=0;entryX=0.652;entryY=1.038;entryDx=0;entryDy=0;exitX=0.099;exitY=-0.009;exitDx=0;exitDy=0;entryPerimeter=0;exitPerimeter=0;" parent="WIyWlLk6GJQsqaUBKTNV-1" source="YZaQ3h0gJ-rlXRXciao8-0" target="YZaQ3h0gJ-rlXRXciao8-7" edge="1">
          <mxGeometry x="0.0353" y="2" width="60" relative="1" as="geometry">
            <mxPoint x="330" y="280" as="sourcePoint" />
            <mxPoint x="410" y="166" as="targetPoint" />
            <mxPoint as="offset" />
          </mxGeometry>
        </mxCell>
        <mxCell id="YZaQ3h0gJ-rlXRXciao8-19" value="MedCard" style="swimlane;fontStyle=1;align=center;verticalAlign=top;childLayout=stackLayout;horizontal=1;startSize=26;horizontalStack=0;resizeParent=1;resizeParentMax=0;resizeLast=0;collapsible=1;marginBottom=0;whiteSpace=wrap;html=1;" parent="WIyWlLk6GJQsqaUBKTNV-1" vertex="1">
          <mxGeometry x="400" y="-140" width="160" height="100" as="geometry" />
        </mxCell>
        <mxCell id="YZaQ3h0gJ-rlXRXciao8-20" value="-PatientID: int" style="text;strokeColor=none;fillColor=none;align=left;verticalAlign=top;spacingLeft=4;spacingRight=4;overflow=hidden;rotatable=0;points=[[0,0.5],[1,0.5]];portConstraint=eastwest;whiteSpace=wrap;html=1;" parent="YZaQ3h0gJ-rlXRXciao8-19" vertex="1">
          <mxGeometry y="26" width="160" height="24" as="geometry" />
        </mxCell>
        <mxCell id="YZaQ3h0gJ-rlXRXciao8-21" value="" style="line;strokeWidth=1;fillColor=none;align=left;verticalAlign=middle;spacingTop=-1;spacingLeft=3;spacingRight=3;rotatable=0;labelPosition=right;points=[];portConstraint=eastwest;strokeColor=inherit;" parent="YZaQ3h0gJ-rlXRXciao8-19" vertex="1">
          <mxGeometry y="50" width="160" height="8" as="geometry" />
        </mxCell>
        <mxCell id="YZaQ3h0gJ-rlXRXciao8-22" value="+getPatientID: int&lt;div&gt;+MedCard(int: PatientID)&lt;/div&gt;" style="text;strokeColor=none;fillColor=none;align=left;verticalAlign=top;spacingLeft=4;spacingRight=4;overflow=hidden;rotatable=0;points=[[0,0.5],[1,0.5]];portConstraint=eastwest;whiteSpace=wrap;html=1;" parent="YZaQ3h0gJ-rlXRXciao8-19" vertex="1">
          <mxGeometry y="58" width="160" height="42" as="geometry" />
        </mxCell>
        <mxCell id="YZaQ3h0gJ-rlXRXciao8-26" value="" style="endArrow=open;startArrow=none;endFill=0;startFill=0;html=1;rounded=0;entryX=0.25;entryY=0;entryDx=0;entryDy=0;exitX=1;exitY=0.075;exitDx=0;exitDy=0;exitPerimeter=0;" parent="WIyWlLk6GJQsqaUBKTNV-1" source="YZaQ3h0gJ-rlXRXciao8-8" target="YZaQ3h0gJ-rlXRXciao8-19" edge="1">
          <mxGeometry width="160" relative="1" as="geometry">
            <mxPoint x="380" y="-300" as="sourcePoint" />
            <mxPoint x="540" y="-300" as="targetPoint" />
          </mxGeometry>
        </mxCell>
        <mxCell id="YZaQ3h0gJ-rlXRXciao8-29" value="" style="endArrow=open;startArrow=none;endFill=0;startFill=0;html=1;rounded=0;entryX=0.75;entryY=0;entryDx=0;entryDy=0;exitX=0.164;exitY=1.009;exitDx=0;exitDy=0;exitPerimeter=0;" parent="WIyWlLk6GJQsqaUBKTNV-1" source="YZaQ3h0gJ-rlXRXciao8-3" target="YZaQ3h0gJ-rlXRXciao8-12" edge="1">
          <mxGeometry width="160" relative="1" as="geometry">
            <mxPoint x="330" y="-60" as="sourcePoint" />
            <mxPoint x="453" y="58" as="targetPoint" />
          </mxGeometry>
        </mxCell>
        <mxCell id="YZaQ3h0gJ-rlXRXciao8-30" value="работает в" style="text;html=1;align=center;verticalAlign=middle;resizable=0;points=[];autosize=1;strokeColor=none;fillColor=none;fontStyle=1" parent="WIyWlLk6GJQsqaUBKTNV-1" vertex="1">
          <mxGeometry x="570" y="10" width="80" height="30" as="geometry" />
        </mxCell>
        <mxCell id="YZaQ3h0gJ-rlXRXciao8-32" value="" style="endArrow=open;startArrow=none;endFill=0;startFill=0;html=1;rounded=0;entryX=0.25;entryY=0;entryDx=0;entryDy=0;exitX=0.787;exitY=0.996;exitDx=0;exitDy=0;exitPerimeter=0;" parent="WIyWlLk6GJQsqaUBKTNV-1" source="YZaQ3h0gJ-rlXRXciao8-11" target="YZaQ3h0gJ-rlXRXciao8-12" edge="1">
          <mxGeometry width="160" relative="1" as="geometry">
            <mxPoint x="260" y="-9" as="sourcePoint" />
            <mxPoint x="383" y="99" as="targetPoint" />
          </mxGeometry>
        </mxCell>
        <mxCell id="YZaQ3h0gJ-rlXRXciao8-33" value="&lt;b&gt;лечиться в&lt;/b&gt;" style="text;html=1;align=center;verticalAlign=middle;resizable=0;points=[];autosize=1;strokeColor=none;fillColor=none;" parent="WIyWlLk6GJQsqaUBKTNV-1" vertex="1">
          <mxGeometry x="330" y="10" width="90" height="30" as="geometry" />
        </mxCell>
        <mxCell id="YZaQ3h0gJ-rlXRXciao8-36" value="" style="endArrow=none;startArrow=none;endFill=0;startFill=0;html=1;rounded=0;entryX=-0.004;entryY=0.023;entryDx=0;entryDy=0;exitX=1;exitY=0.022;exitDx=0;exitDy=0;entryPerimeter=0;exitPerimeter=0;" parent="WIyWlLk6GJQsqaUBKTNV-1" source="YZaQ3h0gJ-rlXRXciao8-8" target="YZaQ3h0gJ-rlXRXciao8-0" edge="1">
          <mxGeometry width="160" relative="1" as="geometry">
            <mxPoint x="425" y="-320" as="sourcePoint" />
            <mxPoint x="535" y="-190" as="targetPoint" />
          </mxGeometry>
        </mxCell>
        <mxCell id="YZaQ3h0gJ-rlXRXciao8-37" value="Ходит на приём" style="text;html=1;align=center;verticalAlign=middle;resizable=0;points=[];autosize=1;strokeColor=none;fillColor=none;fontStyle=1" parent="WIyWlLk6GJQsqaUBKTNV-1" vertex="1">
          <mxGeometry x="430" y="-302" width="110" height="30" as="geometry" />
        </mxCell>
        <mxCell id="YZaQ3h0gJ-rlXRXciao8-38" value="" style="endArrow=open;startArrow=none;endFill=0;startFill=0;html=1;rounded=0;entryX=0.75;entryY=0;entryDx=0;entryDy=0;exitX=-0.002;exitY=0.064;exitDx=0;exitDy=0;exitPerimeter=0;" parent="WIyWlLk6GJQsqaUBKTNV-1" source="YZaQ3h0gJ-rlXRXciao8-0" target="YZaQ3h0gJ-rlXRXciao8-19" edge="1">
          <mxGeometry width="160" relative="1" as="geometry">
            <mxPoint x="581" y="-250" as="sourcePoint" />
            <mxPoint x="470" y="-92" as="targetPoint" />
          </mxGeometry>
        </mxCell>
        <mxCell id="YZaQ3h0gJ-rlXRXciao8-39" value="&lt;b&gt;Писать в&lt;span style=&quot;color: rgba(0, 0, 0, 0); font-family: monospace; font-size: 0px; text-align: start;&quot;&gt;%3CmxGraphModel%3E%3Croot%3E%3CmxCell%20id%3D%220%22%2F%3E%3CmxCell%20id%3D%221%22%20parent%3D%220%22%2F%3E%3CmxCell%20id%3D%222%22%20value%3D%22%22%20style%3D%22endArrow%3Dopen%3BstartArrow%3Dnone%3BendFill%3D0%3BstartFill%3D0%3Bhtml%3D1%3Brounded%3D0%3BentryX%3D0.75%3BentryY%3D0%3BentryDx%3D0%3BentryDy%3D0%3BexitX%3D0.164%3BexitY%3D1.009%3BexitDx%3D0%3BexitDy%3D0%3BexitPerimeter%3D0%3B%22%20edge%3D%221%22%20parent%3D%221%22%3E%3CmxGeometry%20width%3D%22160%22%20relative%3D%221%22%20as%3D%22geometry%22%3E%3CmxPoint%20x%3D%22714%22%20y%3D%22-48%22%20as%3D%22sourcePoint%22%2F%3E%3CmxPoint%20x%3D%22603%22%20y%3D%22110%22%20as%3D%22targetPoint%22%2F%3E%3C%2FmxGeometry%3E%3C%2FmxCell%3E%3C%2Froot%3E%3C%2FmxGraphModel%3E&lt;/span&gt;&lt;span style=&quot;color: rgba(0, 0, 0, 0); font-family: monospace; font-size: 0px; text-align: start;&quot;&gt;%3CmxGraphModel%3E%3Croot%3E%3CmxCell%20id%3D%220%22%2F%3E%3CmxCell%20id%3D%221%22%20parent%3D%220%22%2F%3E%3CmxCell%20id%3D%222%22%20value%3D%22%22%20style%3D%22endArrow%3Dopen%3BstartArrow%3Dnone%3BendFill%3D0%3BstartFill%3D0%3Bhtml%3D1%3Brounded%3D0%3BentryX%3D0.75%3BentryY%3D0%3BentryDx%3D0%3BentryDy%3D0%3BexitX%3D0.164%3BexitY%3D1.009%3BexitDx%3D0%3BexitDy%3D0%3BexitPerimeter%3D0%3B%22%20edge%3D%221%22%20parent%3D%221%22%3E%3CmxGeometry%20width%3D%22160%22%20relative%3D%221%22%20as%3D%22geometry%22%3E%3CmxPoint%20x%3D%22714%22%20y%3D%22-48%22%20as%3D%22sourcePoint%22%2F%3E%3CmxPoint%20x%3D%22603%22%20y%3D%22110%22%20as%3D%22targetPoint%22%2F%3E%3C%2FmxGeometry%3E%3C%2FmxCell%3E%3C%2Froot%3E%3C%2FmxGraphModel%3E&lt;/span&gt;&lt;/b&gt;" style="text;html=1;align=center;verticalAlign=middle;resizable=0;points=[];autosize=1;strokeColor=none;fillColor=none;" parent="WIyWlLk6GJQsqaUBKTNV-1" vertex="1">
          <mxGeometry x="500" y="-220" width="80" height="30" as="geometry" />
        </mxCell>
        <mxCell id="YZaQ3h0gJ-rlXRXciao8-41" value="&lt;b&gt;*&lt;/b&gt;" style="text;html=1;align=center;verticalAlign=middle;resizable=0;points=[];autosize=1;strokeColor=none;fillColor=none;fontSize=22;" parent="WIyWlLk6GJQsqaUBKTNV-1" vertex="1">
          <mxGeometry x="340" y="-310" width="30" height="40" as="geometry" />
        </mxCell>
        <mxCell id="YZaQ3h0gJ-rlXRXciao8-42" value="&lt;b&gt;*&lt;/b&gt;" style="text;html=1;align=center;verticalAlign=middle;resizable=0;points=[];autosize=1;strokeColor=none;fillColor=none;fontSize=22;" parent="WIyWlLk6GJQsqaUBKTNV-1" vertex="1">
          <mxGeometry x="595" y="-282" width="30" height="40" as="geometry" />
        </mxCell>
        <mxCell id="YZaQ3h0gJ-rlXRXciao8-43" value="&lt;b&gt;1&lt;/b&gt;" style="text;html=1;align=center;verticalAlign=middle;resizable=0;points=[];autosize=1;strokeColor=none;fillColor=none;" parent="WIyWlLk6GJQsqaUBKTNV-1" vertex="1">
          <mxGeometry x="340" y="-272" width="30" height="30" as="geometry" />
        </mxCell>
        <mxCell id="YZaQ3h0gJ-rlXRXciao8-44" value="&lt;b&gt;1&lt;/b&gt;" style="text;html=1;align=center;verticalAlign=middle;resizable=0;points=[];autosize=1;strokeColor=none;fillColor=none;" parent="WIyWlLk6GJQsqaUBKTNV-1" vertex="1">
          <mxGeometry x="420" y="-190" width="30" height="30" as="geometry" />
        </mxCell>
        <mxCell id="YZaQ3h0gJ-rlXRXciao8-45" value="&lt;b&gt;*&lt;/b&gt;" style="text;html=1;align=center;verticalAlign=middle;resizable=0;points=[];autosize=1;strokeColor=none;fillColor=none;fontSize=22;" parent="WIyWlLk6GJQsqaUBKTNV-1" vertex="1">
          <mxGeometry x="510" y="-180" width="30" height="40" as="geometry" />
        </mxCell>
        <mxCell id="YZaQ3h0gJ-rlXRXciao8-46" value="&lt;b&gt;1&lt;/b&gt;" style="text;html=1;align=center;verticalAlign=middle;resizable=0;points=[];autosize=1;strokeColor=none;fillColor=none;" parent="WIyWlLk6GJQsqaUBKTNV-1" vertex="1">
          <mxGeometry x="590" y="-240" width="30" height="30" as="geometry" />
        </mxCell>
        <mxCell id="YZaQ3h0gJ-rlXRXciao8-47" value="&lt;b&gt;*&lt;/b&gt;" style="text;html=1;align=center;verticalAlign=middle;resizable=0;points=[];autosize=1;strokeColor=none;fillColor=none;fontSize=22;" parent="WIyWlLk6GJQsqaUBKTNV-1" vertex="1">
          <mxGeometry x="290" y="-40" width="30" height="40" as="geometry" />
        </mxCell>
        <mxCell id="YZaQ3h0gJ-rlXRXciao8-48" value="&lt;b&gt;1&lt;/b&gt;" style="text;html=1;align=center;verticalAlign=middle;resizable=0;points=[];autosize=1;strokeColor=none;fillColor=none;" parent="WIyWlLk6GJQsqaUBKTNV-1" vertex="1">
          <mxGeometry x="390" y="60" width="30" height="30" as="geometry" />
        </mxCell>
        <mxCell id="YZaQ3h0gJ-rlXRXciao8-49" value="&lt;b&gt;*&lt;/b&gt;" style="text;html=1;align=center;verticalAlign=middle;resizable=0;points=[];autosize=1;strokeColor=none;fillColor=none;fontSize=22;" parent="WIyWlLk6GJQsqaUBKTNV-1" vertex="1">
          <mxGeometry x="650" y="-30" width="30" height="40" as="geometry" />
        </mxCell>
        <mxCell id="YZaQ3h0gJ-rlXRXciao8-50" value="&lt;b&gt;1&lt;/b&gt;" style="text;html=1;align=center;verticalAlign=middle;resizable=0;points=[];autosize=1;strokeColor=none;fillColor=none;" parent="WIyWlLk6GJQsqaUBKTNV-1" vertex="1">
          <mxGeometry x="590" y="60" width="30" height="30" as="geometry" />
        </mxCell>
      </root>
    </mxGraphModel>
  </diagram>
</mxfile>
